<?xml version="1.0" encoding="UTF-8"?><svg id="Layer_2" xmlns="http://www.w3.org/2000/svg" viewBox="0 0 177.59 97.34"><g id="Layer_1-2"><g><path d="M172.15,25.8h-12.42v-3.28c0-3.73-3.04-6.77-6.77-6.77h-20.29v-6.95c0-4.85-3.95-8.79-8.79-8.79H53.73c-4.85,0-8.8,3.94-8.8,8.79v6.95H24.64c-3.73,0-6.77,3.04-6.77,6.77v3.28H5.44c-3,0-5.44,2.44-5.44,5.44v34.74c0,3,2.44,5.44,5.44,5.44h12.42v3.73c0,3.73,3.04,6.77,6.77,6.77h20.29v6.61c0,4.85,3.95,8.8,8.8,8.8H123.86c4.85,0,8.79-3.95,8.79-8.8v-6.61h20.29c3.73,0,6.77-3.04,6.77-6.77v-3.73h12.42c3,0,5.44-2.44,5.44-5.44V31.24c0-3-2.44-5.44-5.44-5.44Zm-12.42,34.39v-26.87h10.34v26.87h-10.34Zm-27.07,7.66V24.22h18.6v43.65h-18.6Zm-77.82,10.54V10.46c0-.31,.25-.56,.56-.56H122.2c.31,0,.56,.25,.56,.56V78.4c0,.31-.25,.56-.56,.56H55.39c-.31,0-.56-.25-.56-.56Zm-9.9-54.19v43.65H26.33V24.22h18.6Zm-27.07,9.11v26.87H7.53v-26.87h10.34Z"/><path d="M71.58,66.45c2.16,1.08,4.76,1.92,7.79,2.5,3.03,.59,5.98,.88,8.85,.88,4.28,0,7.99-.66,11.14-1.97,3.15-1.31,5.59-3.17,7.33-5.57,1.74-2.4,2.61-5.22,2.61-8.46,0-7.19-4.54-11.75-13.6-13.67l-8.18-1.76c-2.16-.47-3.67-1.03-4.51-1.69-.85-.66-1.27-1.5-1.27-2.54,0-1.46,.7-2.64,2.11-3.56,1.41-.92,3.43-1.37,6.06-1.37,1.6,0,3.24,.15,4.93,.46,1.69,.31,3.24,.76,4.65,1.37,1.83,.75,3.35,.85,4.55,.28,1.2-.56,2.03-1.46,2.5-2.68,.47-1.22,.52-2.48,.14-3.77-.38-1.29-1.27-2.31-2.68-3.07-1.83-1.08-4.01-1.89-6.52-2.43-2.51-.54-4.99-.81-7.44-.81-4.18,0-7.85,.67-11,2.01-3.15,1.34-5.6,3.23-7.37,5.67-1.76,2.44-2.64,5.29-2.64,8.53,0,7.42,4.46,12.1,13.39,14.03l8.25,1.76c2.21,.47,3.75,1.03,4.62,1.69,.87,.66,1.3,1.53,1.3,2.61,0,1.22-.62,2.24-1.87,3.07-1.25,.82-3.42,1.23-6.52,1.23-1.97,0-4.09-.22-6.34-.67-2.26-.45-4.28-1.12-6.06-2.01-1.36-.61-2.58-.76-3.66-.46-1.08,.31-1.95,.89-2.61,1.76-.66,.87-1.06,1.86-1.2,2.96-.14,1.1,.05,2.17,.56,3.21,.52,1.03,1.41,1.86,2.68,2.47Z"/></g></g></svg>